<svg width="181" height="82" viewBox="0 0 181 82" fill="none" xmlns="http://www.w3.org/2000/svg">
<path d="M0 10C0 4.47715 4.47715 0 10 0H171C176.523 0 181 4.47715 181 10V72C181 77.5229 176.523 82 171 82H10C4.47715 82 0 77.5229 0 72V10Z" fill="black"/>
<path d="M38.642 50.212C39.146 50.824 39.692 51.256 40.28 51.508C40.88 51.76 41.51 51.886 42.17 51.886C42.854 51.886 43.466 51.766 44.006 51.526C44.558 51.274 45.026 50.89 45.41 50.374C45.794 49.846 46.088 49.18 46.292 48.376C46.496 47.56 46.598 46.588 46.598 45.46C46.598 43.432 46.262 41.968 45.59 41.068C44.918 40.156 43.952 39.7 42.692 39.7C41.84 39.7 41.096 39.898 40.46 40.294C39.824 40.678 39.218 41.224 38.642 41.932V50.212ZM38.642 38.8C39.386 38.02 40.208 37.402 41.108 36.946C42.02 36.478 43.058 36.244 44.222 36.244C45.29 36.244 46.25 36.454 47.102 36.874C47.966 37.294 48.698 37.9 49.298 38.692C49.91 39.472 50.378 40.42 50.702 41.536C51.026 42.652 51.188 43.906 51.188 45.298C51.188 46.798 51.002 48.16 50.63 49.384C50.258 50.608 49.724 51.658 49.028 52.534C48.344 53.398 47.516 54.07 46.544 54.55C45.572 55.03 44.492 55.27 43.304 55.27C42.728 55.27 42.206 55.21 41.738 55.09C41.27 54.982 40.838 54.826 40.442 54.622C40.046 54.418 39.68 54.172 39.344 53.884C39.02 53.584 38.708 53.254 38.408 52.894L38.21 54.136C38.138 54.448 38.012 54.67 37.832 54.802C37.664 54.934 37.43 55 37.13 55H34.196V28.252H38.642V38.8ZM59.3198 36.532V55H54.8558V36.532H59.3198ZM59.9318 31.15C59.9318 31.534 59.8538 31.894 59.6978 32.23C59.5418 32.566 59.3318 32.86 59.0678 33.112C58.8158 33.364 58.5158 33.568 58.1678 33.724C57.8198 33.868 57.4478 33.94 57.0518 33.94C56.6678 33.94 56.3018 33.868 55.9538 33.724C55.6178 33.568 55.3238 33.364 55.0718 33.112C54.8198 32.86 54.6158 32.566 54.4598 32.23C54.3158 31.894 54.2438 31.534 54.2438 31.15C54.2438 30.754 54.3158 30.382 54.4598 30.034C54.6158 29.686 54.8198 29.386 55.0718 29.134C55.3238 28.882 55.6178 28.684 55.9538 28.54C56.3018 28.384 56.6678 28.306 57.0518 28.306C57.4478 28.306 57.8198 28.384 58.1678 28.54C58.5158 28.684 58.8158 28.882 59.0678 29.134C59.3318 29.386 59.5418 29.686 59.6978 30.034C59.8538 30.382 59.9318 30.754 59.9318 31.15ZM70.6924 45.316C71.2444 45.316 71.7244 45.244 72.1324 45.1C72.5404 44.944 72.8764 44.734 73.1404 44.47C73.4164 44.206 73.6204 43.888 73.7524 43.516C73.8964 43.144 73.9684 42.736 73.9684 42.292C73.9684 41.38 73.6924 40.66 73.1404 40.132C72.6004 39.592 71.7844 39.322 70.6924 39.322C69.6004 39.322 68.7784 39.592 68.2264 40.132C67.6864 40.66 67.4164 41.38 67.4164 42.292C67.4164 42.724 67.4824 43.126 67.6144 43.498C67.7584 43.87 67.9624 44.194 68.2264 44.47C68.5024 44.734 68.8444 44.944 69.2524 45.1C69.6724 45.244 70.1524 45.316 70.6924 45.316ZM75.7144 55.828C75.7144 55.468 75.6064 55.174 75.3904 54.946C75.1744 54.718 74.8804 54.544 74.5084 54.424C74.1364 54.292 73.6984 54.196 73.1944 54.136C72.7024 54.076 72.1744 54.034 71.6104 54.01C71.0584 53.974 70.4824 53.944 69.8824 53.92C69.2944 53.896 68.7184 53.848 68.1544 53.776C67.6624 54.052 67.2604 54.376 66.9484 54.748C66.6484 55.12 66.4984 55.552 66.4984 56.044C66.4984 56.368 66.5764 56.668 66.7324 56.944C66.9004 57.232 67.1584 57.478 67.5064 57.682C67.8664 57.886 68.3284 58.042 68.8924 58.15C69.4564 58.27 70.1464 58.33 70.9624 58.33C71.7904 58.33 72.5044 58.264 73.1044 58.132C73.7044 58.012 74.1964 57.838 74.5804 57.61C74.9764 57.394 75.2644 57.13 75.4444 56.818C75.6244 56.518 75.7144 56.188 75.7144 55.828ZM80.1424 37.162V38.818C80.1424 39.346 79.8244 39.67 79.1884 39.79L77.5324 40.096C77.7844 40.732 77.9104 41.428 77.9104 42.184C77.9104 43.096 77.7244 43.924 77.3524 44.668C76.9924 45.4 76.4884 46.024 75.8404 46.54C75.1924 47.056 74.4244 47.458 73.5364 47.746C72.6604 48.022 71.7124 48.16 70.6924 48.16C70.3324 48.16 69.9844 48.142 69.6484 48.106C69.3124 48.07 68.9824 48.022 68.6584 47.962C68.0824 48.31 67.7944 48.7 67.7944 49.132C67.7944 49.504 67.9624 49.78 68.2984 49.96C68.6464 50.128 69.1024 50.248 69.6664 50.32C70.2304 50.392 70.8724 50.44 71.5924 50.464C72.3124 50.476 73.0504 50.512 73.8064 50.572C74.5624 50.632 75.3004 50.74 76.0204 50.896C76.7404 51.04 77.3824 51.274 77.9464 51.598C78.5104 51.922 78.9604 52.366 79.2964 52.93C79.6444 53.482 79.8184 54.196 79.8184 55.072C79.8184 55.888 79.6144 56.68 79.2064 57.448C78.8104 58.216 78.2284 58.9 77.4604 59.5C76.7044 60.1 75.7684 60.58 74.6524 60.94C73.5484 61.312 72.2884 61.498 70.8724 61.498C69.4804 61.498 68.2684 61.36 67.2364 61.084C66.2044 60.82 65.3464 60.46 64.6624 60.004C63.9784 59.56 63.4684 59.044 63.1324 58.456C62.7964 57.868 62.6284 57.256 62.6284 56.62C62.6284 55.756 62.8864 55.036 63.4024 54.46C63.9304 53.872 64.6504 53.404 65.5624 53.056C65.0704 52.804 64.6804 52.468 64.3924 52.048C64.1044 51.628 63.9604 51.076 63.9604 50.392C63.9604 50.116 64.0084 49.834 64.1044 49.546C64.2124 49.246 64.3624 48.952 64.5544 48.664C64.7584 48.376 65.0104 48.106 65.3104 47.854C65.6104 47.59 65.9644 47.356 66.3724 47.152C65.4364 46.648 64.6984 45.976 64.1584 45.136C63.6304 44.296 63.3664 43.312 63.3664 42.184C63.3664 41.272 63.5464 40.45 63.9064 39.718C64.2784 38.974 64.7884 38.344 65.4364 37.828C66.0964 37.3 66.8704 36.898 67.7584 36.622C68.6584 36.346 69.6364 36.208 70.6924 36.208C71.4844 36.208 72.2284 36.292 72.9244 36.46C73.6204 36.616 74.2564 36.85 74.8324 37.162H80.1424Z" fill="#C0C0C0"/>
<path d="M106.642 50.212C107.146 50.824 107.692 51.256 108.28 51.508C108.88 51.76 109.51 51.886 110.17 51.886C110.854 51.886 111.466 51.766 112.006 51.526C112.558 51.274 113.026 50.89 113.41 50.374C113.794 49.846 114.088 49.18 114.292 48.376C114.496 47.56 114.598 46.588 114.598 45.46C114.598 43.432 114.262 41.968 113.59 41.068C112.918 40.156 111.952 39.7 110.692 39.7C109.84 39.7 109.096 39.898 108.46 40.294C107.824 40.678 107.218 41.224 106.642 41.932V50.212ZM106.642 38.8C107.386 38.02 108.208 37.402 109.108 36.946C110.02 36.478 111.058 36.244 112.222 36.244C113.29 36.244 114.25 36.454 115.102 36.874C115.966 37.294 116.698 37.9 117.298 38.692C117.91 39.472 118.378 40.42 118.702 41.536C119.026 42.652 119.188 43.906 119.188 45.298C119.188 46.798 119.002 48.16 118.63 49.384C118.258 50.608 117.724 51.658 117.028 52.534C116.344 53.398 115.516 54.07 114.544 54.55C113.572 55.03 112.492 55.27 111.304 55.27C110.728 55.27 110.206 55.21 109.738 55.09C109.27 54.982 108.838 54.826 108.442 54.622C108.046 54.418 107.68 54.172 107.344 53.884C107.02 53.584 106.708 53.254 106.408 52.894L106.21 54.136C106.138 54.448 106.012 54.67 105.832 54.802C105.664 54.934 105.43 55 105.13 55H102.196V28.252H106.642V38.8ZM127.32 36.532V55H122.856V36.532H127.32ZM127.932 31.15C127.932 31.534 127.854 31.894 127.698 32.23C127.542 32.566 127.332 32.86 127.068 33.112C126.816 33.364 126.516 33.568 126.168 33.724C125.82 33.868 125.448 33.94 125.052 33.94C124.668 33.94 124.302 33.868 123.954 33.724C123.618 33.568 123.324 33.364 123.072 33.112C122.82 32.86 122.616 32.566 122.46 32.23C122.316 31.894 122.244 31.534 122.244 31.15C122.244 30.754 122.316 30.382 122.46 30.034C122.616 29.686 122.82 29.386 123.072 29.134C123.324 28.882 123.618 28.684 123.954 28.54C124.302 28.384 124.668 28.306 125.052 28.306C125.448 28.306 125.82 28.384 126.168 28.54C126.516 28.684 126.816 28.882 127.068 29.134C127.332 29.386 127.542 29.686 127.698 30.034C127.854 30.382 127.932 30.754 127.932 31.15ZM138.692 45.316C139.244 45.316 139.724 45.244 140.132 45.1C140.54 44.944 140.876 44.734 141.14 44.47C141.416 44.206 141.62 43.888 141.752 43.516C141.896 43.144 141.968 42.736 141.968 42.292C141.968 41.38 141.692 40.66 141.14 40.132C140.6 39.592 139.784 39.322 138.692 39.322C137.6 39.322 136.778 39.592 136.226 40.132C135.686 40.66 135.416 41.38 135.416 42.292C135.416 42.724 135.482 43.126 135.614 43.498C135.758 43.87 135.962 44.194 136.226 44.47C136.502 44.734 136.844 44.944 137.252 45.1C137.672 45.244 138.152 45.316 138.692 45.316ZM143.714 55.828C143.714 55.468 143.606 55.174 143.39 54.946C143.174 54.718 142.88 54.544 142.508 54.424C142.136 54.292 141.698 54.196 141.194 54.136C140.702 54.076 140.174 54.034 139.61 54.01C139.058 53.974 138.482 53.944 137.882 53.92C137.294 53.896 136.718 53.848 136.154 53.776C135.662 54.052 135.26 54.376 134.948 54.748C134.648 55.12 134.498 55.552 134.498 56.044C134.498 56.368 134.576 56.668 134.732 56.944C134.9 57.232 135.158 57.478 135.506 57.682C135.866 57.886 136.328 58.042 136.892 58.15C137.456 58.27 138.146 58.33 138.962 58.33C139.79 58.33 140.504 58.264 141.104 58.132C141.704 58.012 142.196 57.838 142.58 57.61C142.976 57.394 143.264 57.13 143.444 56.818C143.624 56.518 143.714 56.188 143.714 55.828ZM148.142 37.162V38.818C148.142 39.346 147.824 39.67 147.188 39.79L145.532 40.096C145.784 40.732 145.91 41.428 145.91 42.184C145.91 43.096 145.724 43.924 145.352 44.668C144.992 45.4 144.488 46.024 143.84 46.54C143.192 47.056 142.424 47.458 141.536 47.746C140.66 48.022 139.712 48.16 138.692 48.16C138.332 48.16 137.984 48.142 137.648 48.106C137.312 48.07 136.982 48.022 136.658 47.962C136.082 48.31 135.794 48.7 135.794 49.132C135.794 49.504 135.962 49.78 136.298 49.96C136.646 50.128 137.102 50.248 137.666 50.32C138.23 50.392 138.872 50.44 139.592 50.464C140.312 50.476 141.05 50.512 141.806 50.572C142.562 50.632 143.3 50.74 144.02 50.896C144.74 51.04 145.382 51.274 145.946 51.598C146.51 51.922 146.96 52.366 147.296 52.93C147.644 53.482 147.818 54.196 147.818 55.072C147.818 55.888 147.614 56.68 147.206 57.448C146.81 58.216 146.228 58.9 145.46 59.5C144.704 60.1 143.768 60.58 142.652 60.94C141.548 61.312 140.288 61.498 138.872 61.498C137.48 61.498 136.268 61.36 135.236 61.084C134.204 60.82 133.346 60.46 132.662 60.004C131.978 59.56 131.468 59.044 131.132 58.456C130.796 57.868 130.628 57.256 130.628 56.62C130.628 55.756 130.886 55.036 131.402 54.46C131.93 53.872 132.65 53.404 133.562 53.056C133.07 52.804 132.68 52.468 132.392 52.048C132.104 51.628 131.96 51.076 131.96 50.392C131.96 50.116 132.008 49.834 132.104 49.546C132.212 49.246 132.362 48.952 132.554 48.664C132.758 48.376 133.01 48.106 133.31 47.854C133.61 47.59 133.964 47.356 134.372 47.152C133.436 46.648 132.698 45.976 132.158 45.136C131.63 44.296 131.366 43.312 131.366 42.184C131.366 41.272 131.546 40.45 131.906 39.718C132.278 38.974 132.788 38.344 133.436 37.828C134.096 37.3 134.87 36.898 135.758 36.622C136.658 36.346 137.636 36.208 138.692 36.208C139.484 36.208 140.228 36.292 140.924 36.46C141.62 36.616 142.256 36.85 142.832 37.162H148.142Z" fill="#C0C0C0"/>
<path d="M92.952 47.116C91.668 47.176 90.588 47.29 89.712 47.458C88.836 47.614 88.134 47.818 87.606 48.07C87.078 48.322 86.7 48.616 86.472 48.952C86.244 49.288 86.13 49.654 86.13 50.05C86.13 50.83 86.358 51.388 86.814 51.724C87.282 52.06 87.888 52.228 88.632 52.228C89.544 52.228 90.33 52.066 90.99 51.742C91.662 51.406 92.316 50.902 92.952 50.23V47.116ZM82.764 39.106C84.888 37.162 87.444 36.19 90.432 36.19C91.512 36.19 92.478 36.37 93.33 36.73C94.182 37.078 94.902 37.57 95.49 38.206C96.078 38.83 96.522 39.58 96.822 40.456C97.134 41.332 97.29 42.292 97.29 43.336V55H95.274C94.854 55 94.53 54.94 94.302 54.82C94.074 54.688 93.894 54.43 93.762 54.046L93.366 52.714C92.898 53.134 92.442 53.506 91.998 53.83C91.554 54.142 91.092 54.406 90.612 54.622C90.132 54.838 89.616 55 89.064 55.108C88.524 55.228 87.924 55.288 87.264 55.288C86.484 55.288 85.764 55.186 85.104 54.982C84.444 54.766 83.874 54.448 83.394 54.028C82.914 53.608 82.542 53.086 82.278 52.462C82.014 51.838 81.882 51.112 81.882 50.284C81.882 49.816 81.96 49.354 82.116 48.898C82.272 48.43 82.524 47.986 82.872 47.566C83.232 47.146 83.694 46.75 84.258 46.378C84.822 46.006 85.512 45.682 86.328 45.406C87.156 45.13 88.116 44.908 89.208 44.74C90.3 44.56 91.548 44.452 92.952 44.416V43.336C92.952 42.1 92.688 41.188 92.16 40.6C91.632 40 90.87 39.7 89.874 39.7C89.154 39.7 88.554 39.784 88.074 39.952C87.606 40.12 87.192 40.312 86.832 40.528C86.472 40.732 86.142 40.918 85.842 41.086C85.554 41.254 85.23 41.338 84.87 41.338C84.558 41.338 84.294 41.26 84.078 41.104C83.862 40.936 83.688 40.744 83.556 40.528L82.764 39.106Z" fill="#FECA31"/>
</svg>
