<?xml version="1.0" encoding="utf-8"?>
<!-- Generator: Adobe Illustrator 22.1.0, SVG Export Plug-In . SVG Version: 6.00 Build 0)  -->
<svg version="1.1" id="Ebene_1" xmlns="http://www.w3.org/2000/svg" xmlns:xlink="http://www.w3.org/1999/xlink" x="0px" y="0px"
	 viewBox="0 0 253.8 54.4" style="enable-background:new 0 0 253.8 54.4;" xml:space="preserve">
<style type="text/css">
	.st0{fill:#87878A;}
</style>
<title>ZC_logo</title>
<g>
	<g>
		<path class="st0" d="M227.9,39.9v-3.3h2.1v-6.4h4.2v6.4h4v3.3h-4v13.9h-4.2V39.9H227.9z M213.6,36.6v1.7c1.3-1.5,3.3-2.4,5.3-2.3
			c4.1,0,6.5,2.7,6.5,7.1v10.7h-4.2V44c0-2.5-1.2-4.4-3.7-4.4c-1.1-0.1-2.1,0.4-2.9,1.2c-0.6,0.8-0.9,1.7-0.9,2.7v10.3h-4.2V37.9
			c0-0.5,0-0.9,0-1.3H213.6z M196.3,39.7c-1.4,0-2.7,0.5-3.6,1.6c-0.9,1.1-1.3,2.6-1.3,4c-0.1,1.4,0.4,2.8,1.3,3.9
			c0.9,1,2.2,1.6,3.5,1.5c3.1,0,5-2.3,5-5.6c0.1-1.4-0.4-2.8-1.4-3.9C198.9,40.2,197.6,39.7,196.3,39.7 M201,36.6h4.1v17.2h-3.9v-2
			c-1.5,1.7-3.7,2.6-5.9,2.5c-2.2,0-4.4-0.9-5.8-2.5c-3.1-3.8-3.1-9.2,0-13c1.5-1.7,3.7-2.6,6-2.6c2.1-0.2,4.2,0.7,5.6,2.2L201,36.6
			L201,36.6z M176.2,39.9v-3.3h2.1v-6.4h4.2v6.4h4v3.3h-4v13.9h-4.2V39.9L176.2,39.9z M168.8,30.2h4.2v23.6h-4.2L168.8,30.2
			L168.8,30.2z M160,53.8v-1.7c-1.3,1.5-3.2,2.4-5.2,2.3c-4.1,0-6.4-2.6-6.4-7.1V36.6h4.2v9.8c-0.1,1.1,0.2,2.2,0.8,3.1
			c0.6,0.9,1.7,1.3,2.8,1.3c1.1,0.1,2.1-0.4,2.8-1.2c0.6-0.8,0.9-1.7,0.9-2.7V36.6h4.2v15.9c0,0.5,0,0.9,0,1.4L160,53.8z
			 M116.3,36.6v1.7c1.3-1.5,3.3-2.4,5.3-2.3c4.1,0,6.5,2.7,6.5,7.1v10.7h-4.2V44c0-2.5-1.2-4.4-3.7-4.4c-1.1-0.1-2.1,0.4-2.9,1.2
			c-0.6,0.8-0.9,1.7-0.9,2.7v10.3h-4.2V37.9c0-0.5,0-0.9,0-1.3H116.3z M99.9,39.7c-1.4-0.1-2.7,0.5-3.5,1.5c-0.9,1.1-1.4,2.6-1.3,4
			c0,3.3,1.8,5.5,4.9,5.5s4.9-2.2,4.9-5.5c0.1-1.4-0.4-2.9-1.3-4C102.6,40.2,101.3,39.7,99.9,39.7 M100,36.1
			c2.5-0.1,4.9,0.8,6.7,2.5c1.7,1.8,2.7,4.2,2.6,6.7c0.1,2.4-0.8,4.8-2.6,6.5c-1.8,1.7-4.3,2.6-6.8,2.5c-2.5,0.1-4.9-0.8-6.6-2.5
			c-1.7-1.7-2.6-4.1-2.5-6.5c-0.1-2.5,0.9-4.9,2.6-6.7C95.2,36.9,97.6,36,100,36.1 M86,48.2l3.5,1.8c-1.6,2.8-4.6,4.5-7.9,4.3
			c-2.4,0.1-4.7-0.9-6.4-2.6c-1.6-1.7-2.5-4.1-2.5-6.5c-0.1-2.4,0.9-4.8,2.6-6.6c1.7-1.7,4.1-2.6,6.5-2.6c3.9,0,6.4,1.8,7.6,4.3
			l-3.6,1.8c-0.7-1.6-2.3-2.6-4-2.5c-1.3,0-2.6,0.5-3.4,1.5c-0.9,1.1-1.4,2.6-1.3,4c0,3.3,1.8,5.5,4.8,5.5
			C83.6,50.8,85.3,49.8,86,48.2"/>
	</g>
</g>
<polygon class="st0" points="0,14 48.4,14 48.4,6 0,6 0,14 "/>
<polygon class="st0" points="0,54.4 48.4,54.4 48.4,46.3 0,46.3 0,54.4 "/>
<polygon class="st0" points="24.2,30.2 48.4,30.2 48.4,22.1 24.2,22.1 24.2,30.2 "/>
<polygon class="st0" points="0,38.3 24.2,38.3 24.2,30.2 0,30.2 0,38.3 "/>
<path class="st0" d="M142,41.2l2.9-2.4c-1.7-1.8-4-2.8-6.5-2.7c-3.2,0-7,1.3-7,5.3c0,3.7,2.9,4.4,4.9,5s5,0.6,5,2.6
	c0,1.2-1.5,1.9-3,1.9c-1.8-0.1-3.6-0.9-4.7-2.3l-3,2.4c1.9,2.1,4.6,3.3,7.4,3.2c3.5,0,7.5-1.7,7.5-5.4s-2.2-4.6-6.4-5.5
	c-3.4-0.7-3.7-1.5-3.7-2.3s1-1.7,2.8-1.7C139.8,39.3,141.1,40,142,41.2"/>
<g>
	<g>
		<path class="st0" d="M250.2,41.2l2.9-2.4c-1.7-1.8-4-2.8-6.5-2.7c-3.2,0-7,1.3-7,5.3c0,3.7,2.9,4.4,4.9,5s5,0.6,5,2.6
			c0,1.4-1.5,1.9-3,1.9c-1.8-0.1-3.6-0.9-4.7-2.3l-3,2.4c1.9,2.1,4.6,3.3,7.4,3.2c3.5,0,7.5-1.7,7.5-5.4s-2.2-4.5-6.4-5.5
			s-3.7-1.8-3.7-2.4s0.9-1.6,2.8-1.6C247.9,39.3,249.3,40,250.2,41.2"/>
		<path class="st0" d="M172.6,6.4v2.1h0.1c0.7-1.6,2.3-2.6,4-2.5c0.3,0,0.7,0,1,0.1v4.1c-0.4-0.1-0.8-0.2-1.2-0.2
			c-1.2-0.1-2.3,0.5-2.9,1.5c-0.5,1.3-0.7,2.7-0.6,4.1v8.1h-4.2V7.9c0-0.5,0-1,0-1.6H172.6z M156.4,9.3c-2.5,0-4.3,1.4-4.5,3.8h8.9
			c-0.1-2.2-1.9-3.9-4.2-3.8C156.6,9.3,156.5,9.3,156.4,9.3 M162.7,17.8l2.4,2.6c-0.9,1-2,1.9-3.2,2.5c-1.6,0.8-3.4,1.3-5.2,1.2
			c-2.4,0.1-4.7-0.8-6.4-2.4c-3.4-3.8-3.4-9.4-0.1-13.2c1.7-1.7,4-2.6,6.3-2.5c2.4-0.1,4.7,0.8,6.3,2.6c1.5,1.8,2.3,4.1,2.2,6.5v0.5
			c0,0.2,0,0.5,0,0.7h-13.1c0.3,2.6,2.6,4.5,5.1,4.3c1.3,0,2.5-0.3,3.6-1c0.4-0.3,0.8-0.6,1.2-0.9C162.2,18.3,162.5,18,162.7,17.8
			 M140,0h4.2v23.6H140V0z M126.9,9.4c-2.9,0-4.8,2-4.8,5s1.8,5,4.8,5c1.3,0,2.5-0.5,3.4-1.4c0.9-1,1.4-2.4,1.4-3.8
			c0.2-2.5-1.7-4.7-4.2-4.9C127.3,9.4,127.1,9.4,126.9,9.4 M131.7,6.4h4.1c0,0.4,0,0.9,0,1.3v14c0.1,2.5-0.9,4.9-2.8,6.5
			c-1.8,1.4-4.1,2.1-6.3,2c-3.1,0-6.1-1.1-8.3-3.2l2.6-2.8c1.6,1.6,3.7,2.5,5.9,2.5c2.5,0.2,4.6-1.6,4.8-4.1c0-0.3,0-0.6,0-1v-1.1
			h-0.1c-1.4,1.7-3.6,2.6-5.8,2.5c-2.2,0.1-4.3-0.8-5.8-2.4c-3-3.5-3-8.8,0.1-12.2c1.6-1.5,3.7-2.4,5.8-2.3c2.1-0.1,4.2,0.7,5.7,2.3
			L131.7,6.4L131.7,6.4z M106.1,9.3c-2.5,0-4.3,1.4-4.5,3.8h8.9c-0.1-2.2-1.9-3.9-4.2-3.8C106.3,9.3,106.2,9.3,106.1,9.3
			 M112.4,17.8l2.4,2.6c-0.9,1-2,1.9-3.2,2.5c-1.6,0.8-3.4,1.3-5.2,1.2c-2.4,0.1-4.7-0.8-6.4-2.4c-3.4-3.8-3.4-9.4-0.1-13.2
			c1.7-1.7,4-2.6,6.3-2.5c2.4-0.1,4.7,0.8,6.3,2.6c1.5,1.8,2.2,4.1,2.2,6.5v0.5c0,0.2,0,0.5,0,0.7h-13.1c0.3,2.6,2.6,4.5,5.1,4.3
			c1.3,0,2.5-0.3,3.6-1c0.4-0.3,0.8-0.6,1.2-0.9C111.9,18.3,112.2,18,112.4,17.8 M90,6.4h4.2v17.2H90V6.4z M72.8,23.6v-3.1l6.6-8.3
			c0.3-0.4,0.6-0.7,0.8-1s0.4-0.5,0.5-0.6c0.2-0.3,0.5-0.6,0.7-0.9c-0.6,0-1.2,0-2,0H73V6.3h13.3v3.2l-6.4,8c-0.4,0.5-0.8,1-1.1,1.4
			c-0.3,0.4-0.6,0.9-1,1.3c0.6,0,1.4,0,2.2,0h6.7v3.4L72.8,23.6z"/>
	</g>
</g>
</svg>
