<svg
  preserveAspectRatio="xMidYMid meet"
  data-bbox="58.222 16.188 488.657 488.764"
  viewBox="58.222 16.188 488.657 488.764"
  height="21.6"
  width="25.5"
  xmlns="http://www.w3.org/2000/svg"
  data-type="shape"
  role="img"
  aria-labelledby="svgcid-4gixek-rr2jzy"
>
  <title id="svgcid-4gixek-rr2jzy">
    PriveTec Rajendran | Haushaltsgeräte Service, Beratung Reparatur
  </title>
  <g>
    <path
      fill="white"
      d="M286 16.7c-37 3.6-64.6 11.1-93.2 25.4-45.3 22.7-85 62.1-107.7 106.9-5.6 11-13.1 28.6-13.1 30.7 0 .6 4 .3 10.1-.8 73.8-13.5 137.8-5.3 185.8 23.7 18.5 11.3 48.4 36.7 89.1 75.9 44.5 43 48.3 46.4 63.8 58.8 38.1 30.4 68.3 38.2 100.7 26.2 4-1.5 4.2-1.8 8.7-13.3 5.1-12.8 9.8-28.3 12.2-40.6.9-4.3 1.6-8.1 1.6-8.5 0-.4-5.1-5.4-11.2-11.1-6.2-5.6-14.2-13-17.8-16.4-3.6-3.4-11.7-10.8-18-16.6-6.3-5.8-12.2-11.2-13-12-.8-.8-3.8-3.5-6.5-6-6.1-5.4-26.8-24.4-34.7-31.9-6.7-6.3-4.7-7-19.3 7-5.5 5.3-17.2 16.4-26 24.6l-16 15.1-8.5-8.1c-4.7-4.4-8.5-8.4-8.5-8.9 0-.7 24.6-24.2 60.2-57.5l11.2-10.5 26.6 24.9c14.7 13.6 27.1 24.9 27.6 25.1.5.2.9-5.1.9-12.7V193h23v48.8l16.3 15.2 16.2 15.2.3-10.8c1-34-7.6-72.9-23.6-106.4-22.5-47.1-62.1-87.9-108.4-111.6C392.3 31.9 372 25 345.5 19.9c-15.3-3-45.5-4.6-59.5-3.2zm155 255.8V283h-20.3l.6-4.1c.8-6.1 4.7-11.2 10.8-14.3 8.8-4.4 8.9-4.3 8.9 7.9zm28 0V283h-21v-21h21v10.5zm-28 27V310h-20v-21h20v10.5zm28-8.7c0 1-1.2 4.2-2.6 7.1-3.1 6.1-8.2 10-14.3 10.8l-4.1.6V289h10.5c9.5 0 10.5.2 10.5 1.8z"
    ></path>
    <path
      fill="white"
      d="M75.3 194.8c-4.1.2-7.6.8-8.2 1.5-2.9 3.6-7.8 34.6-8.7 56-.9 18.9 1.7 46.3 5.7 62.7 15.4 61.8 48.2 110.6 97.9 145.7 27.8 19.7 64.8 35.3 95.5 40.3 3.3.6 7.1 1.2 8.5 1.5 23.3 4.2 63.2 2.9 89.7-3.1 40.6-9 81.6-30.1 109.4-56l6.5-6.1-7.5-2.2c-17.4-5.1-36.9-15.2-54.8-28.6-12.6-9.3-42.4-38.5-55.8-54.6-20.4-24.4-28.6-34.3-31.5-37.9-28.2-34.9-60.5-69.8-75.5-81.4-10.6-8.2-15.9-11.5-28.6-17.5-36.4-17.5-75.7-23-142.6-20.3z"
    ></path>
  </g>
</svg>
